<?xml version="1.0" standalone="no"?>
<!DOCTYPE svg PUBLIC "-//W3C//DTD SVG 20010904//EN"
 "http://www.w3.org/TR/2001/REC-SVG-20010904/DTD/svg10.dtd">
<svg version="1.0" xmlns="http://www.w3.org/2000/svg"
 width="654.000000pt" height="654.000000pt" viewBox="0 0 654.000000 654.000000"
 preserveAspectRatio="xMidYMid meet">
<metadata>
Created by potrace 1.11, written by Peter Selinger 2001-2013
</metadata>
<g transform="translate(0.000000,654.000000) scale(0.100000,-0.100000)"
fill="#000000" stroke="none">
<path d="M480 3448 l0 -2721 128 9 c166 12 5038 12 5205 0 l127 -9 0 2721 0
2722 -2730 0 -2730 0 0 -2722z m2075 1907 c50 -9 113 -18 140 -21 164 -18 205
-31 205 -69 0 -25 -36 -59 -85 -81 -48 -21 -55 -28 -69 -71 -8 -26 -33 -159
-56 -294 -22 -135 -51 -301 -65 -368 -14 -68 -25 -126 -25 -128 0 -8 190 8
280 23 243 41 499 6 677 -93 66 -38 176 -144 227 -222 165 -250 209 -720 120
-1256 -59 -347 -150 -611 -277 -800 -56 -83 -180 -203 -257 -248 -145 -84
-357 -119 -500 -83 -150 38 -344 157 -616 378 l-72 57 32 63 c18 35 47 99 65
143 39 94 47 105 75 105 12 0 82 -49 162 -113 268 -214 355 -260 490 -261 73
0 89 4 150 34 165 81 280 266 353 570 77 318 101 706 57 930 -50 258 -174 399
-386 441 -70 14 -369 6 -550 -14 l-105 -12 -18 -70 c-148 -575 -311 -1033
-526 -1479 -123 -256 -348 -646 -373 -646 -6 0 -80 39 -165 86 -104 59 -153
92 -153 104 0 9 44 84 99 166 86 130 309 516 316 548 1 6 22 54 47 106 69 145
153 362 234 605 75 227 159 524 150 532 -2 3 -165 -19 -361 -49 -399 -61 -356
-63 -368 17 -3 17 -14 76 -26 133 -28 139 -28 158 7 176 15 7 56 16 92 20 36
3 99 10 140 15 41 6 98 13 125 16 28 3 91 9 140 15 50 5 136 10 192 10 130 0
148 7 156 57 3 21 28 172 56 336 28 164 54 344 57 400 3 56 9 142 13 191 12
126 20 130 196 101z m1786 -676 c191 -158 389 -376 509 -560 85 -130 215 -405
235 -495 2 -10 15 -57 30 -104 26 -86 68 -283 80 -375 l6 -50 -173 -49 c-95
-27 -178 -51 -184 -53 -7 -3 -17 36 -28 105 -49 321 -165 626 -335 878 -131
196 -290 363 -426 449 -76 48 -105 74 -105 96 0 10 53 59 127 118 157 125 160
126 264 40z"/>
</g>
</svg>
